<svg xmlns="http://www.w3.org/2000/svg" width="155" height="40" fill="none"><path fill="#fff" d="M14.311 30.042a12 12 0 0 0 .033 1.035h6.216a4.8 4.8 0 0 1-.083-1.036zM6.728 30.042v1.035H.83v-1.036zM14.366 28.988h6.256q.12-.453.336-.862.051-.09.106-.174h-6.547a11 11 0 0 0-.15 1.036M6.728 27.952v1.036H.83v-1.036zM13.76 26.898q-.37-.353-1.028-.541-.724-.188-2.064-.188h-3.94v.729H.83v-1.036h13.241v1.036zM14.784 26.898h7.304q.128-.087.264-.166.885-.51 2.037-.51 1.153 0 2.01.51.137.078.264.166h7.287a9 9 0 0 0-.26-.702 10 10 0 0 0-.141-.334H15.18q-.076.165-.147.334a9 9 0 0 0-.25.702M15.746 24.808h17.25a9 9 0 0 0-.739-1.035H16.493q-.407.489-.747 1.035M17.53 22.719h13.698a9 9 0 0 0-1.462-1.036H18.998q-.786.45-1.468 1.036M14.072 21.683v1.036H.724a4 4 0 0 0-.108-.49 2.7 2.7 0 0 0-.202-.546zM40.647 21.683l-.075.037a9.7 9.7 0 0 0-1.615.999H52.14l.01-.035q.188-.59.59-.91v-.091zM57.687 21.683q-.785.45-1.467 1.036h13.697a9 9 0 0 0-1.462-1.036zM99.013 21.683h8.374q.472.253.873.573.274.22.509.463h-9.756zM82.214 21.683h6.74a3 3 0 0 0-.221.519q-.075.226-.128.517h-6.104a5 5 0 0 0-.094-.49 3 3 0 0 0-.193-.546M74.217 21.683h6.657q-.113.24-.192.546-.055.22-.094.49h-6.084a5 5 0 0 0-.095-.49 3 3 0 0 0-.192-.546M70.947 23.773H55.182q-.408.489-.746 1.035h17.249a9 9 0 0 0-.739-1.035M74.597 24.808v-.515q0-.273-.008-.52h5.913q-.008.247-.008.52v.515zM72.238 25.862H53.87q-.076.165-.146.334a9 9 0 0 0-.251.702h7.304q.128-.087.264-.166.885-.51 2.037-.51 1.153 0 2.01.51.138.078.264.166h7.288a9 9 0 0 0-.26-.702 10 10 0 0 0-.142-.334M74.597 26.898v-1.036h5.897v1.036zM72.916 27.952h-6.561q.052.084.1.174.23.409.355.862h6.262a11 11 0 0 0-.156-1.036M74.597 28.988v-1.036h5.897v1.036zM73.13 30.042h-6.166a5 5 0 0 1-.088 1.035h6.22a12 12 0 0 0 .033-1.036M74.597 31.077v-1.036h5.897v1.036zM72.962 32.131h-6.468l-.038.069q-.305.558-.77.967h7.034q.149-.505.242-1.036M74.597 33.167V32.13h5.897v1.036zM72.342 34.22h-18.58q.232.54.518 1.037h17.558q.28-.496.504-1.036M74.597 35.257V34.22h5.897v1.036zM71.14 36.31H54.987a9 9 0 0 0 .94 1.036h14.278q.056-.052.11-.107.447-.437.825-.929M74.535 37.346q.051-.454.06-1.036h5.901q.01.582.06 1.036zM68.856 38.4H57.287q.802.513 1.717.876 1.85.724 4.074.724 2.199 0 4.048-.724a10 10 0 0 0 1.73-.876M50.65 37.346V36.31H37.57q.474.562 1.046 1.036zM40.207 38.4H50.65v1.359a3.9 3.9 0 0 0-1.18-.188q-.4 0-1.152.107-.723.108-1.688.108-3.46 0-5.951-1.153a10 10 0 0 1-.473-.233M31.515 37.346l.111-.107q.447-.437.825-.929H16.297a9 9 0 0 0 .941 1.036zM18.598 38.4h11.569a10 10 0 0 1-1.73.876q-1.85.724-4.048.724-2.225 0-4.074-.724a10 10 0 0 1-1.717-.876M6.801 37.346a9 9 0 0 1-.07-1.036H.828q-.01.582-.06 1.036zM.545 38.4h6.528q.218.512.54.77v.24H.08v-.24q.288-.268.465-.77M.83 35.257h5.898V34.22H.83zM.83 33.167h5.898V32.13H.83zM14.472 32.131q.091.532.234 1.036h7.044a3.7 3.7 0 0 1-.828-1.036zM27.805 32.131l-.039.069a3.5 3.5 0 0 1-.769.967h7.034q.148-.505.242-1.036zM35.675 32.131q.093.535.235 1.036h7.16a3.4 3.4 0 0 1-.898-1.036zM41.777 31.077h-6.233a13 13 0 0 1-.038-1.021v-.015h6.165q0 .552.106 1.036M52.61 31.077H45.84q.285-.345.44-.968l.017-.068h5.836l.017.068q.156.623.459.968M53.162 32.131q.09.532.233 1.036h7.044a3.7 3.7 0 0 1-.828-1.036zM59.249 31.077h-6.216a12 12 0 0 1-.032-1.036h6.165l-.001.122q0 .48.084.914M59.311 28.988q.12-.453.336-.862.052-.09.107-.174h-6.548a11 11 0 0 0-.15 1.036zM51.992 28.988a15 15 0 0 1-.028-.943v-.093h-5.495v.093q0 .518-.028.943zM41.777 28.988q.12-.556.378-1.036h-6.45a10 10 0 0 0-.15 1.036zM34.383 28.988a11 11 0 0 0-.156-1.036h-6.561q.052.084.1.174.23.409.355.862zM28.274 30.042a5 5 0 0 1-.087 1.035h6.22a12 12 0 0 0 .033-1.036zM35.98 26.898h7.07q.323-.261.711-.46 1.02-.484 2.386-.483.162 0 .322.003v.94h5.495v-1.036H36.396q-.24.501-.416 1.036M36.998 24.808h14.966v-.274q0-.417.02-.761H37.808a9 9 0 0 0-.81 1.035M50.65 34.22H36.282q.232.542.532 1.037H50.65zM33.149 35.257q.28-.496.504-1.036h-18.58q.232.54.517 1.036zM74.311 38.4h6.469q.177.502.465.77v.24h-7.398v-.24q.287-.268.464-.77M82.279 38.4q-.187.502-.516.77v.24h8.605q2.412 0 4.128-.777.254-.109.49-.233zM100.836 38.4q1.858 1.225 4.985 1.225.724 0 1.314-.08.59-.081.884-.081.456 0 .992.188V38.4zM109.011 37.346h-9.357a4.5 4.5 0 0 1-.634-1.036h9.991zM110.89 38.4q-.177.502-.465.77v.24h7.372v-.24q-.288-.268-.465-.77zM117.126 37.346h-6.012q.05-.454.06-1.036h5.901q.008.582.051 1.036M120.308 38.4q-.166.502-.474.77v.24h7.398v-.24q-.308-.268-.49-.77zM126.516 37.346h-5.994q.051-.454.06-1.036h5.875q.01.582.059 1.036M128.083 38.4q-.207.506-.55.77v.24h6.46v-.187a1.8 1.8 0 0 1-.25-.823zM134.038 37.346h-5.703q.057-.45.074-1.036h6.549l-.376.366a3.7 3.7 0 0 0-.544.67M142.416 38.4a2 2 0 0 1-.248.823v.187h6.379v-.24q-.323-.264-.54-.77zM147.745 37.346h-5.583a3.3 3.3 0 0 0-.584-.723l-.311-.313h6.403q.018.585.075 1.036M147.663 35.257V34.22h-8.474l1.03 1.036zM136.038 35.257l1.063-1.036h-8.684v1.036zM126.454 35.257V34.22h-5.87v1.036zM117.073 35.257V34.22h-5.897v1.036zM109.011 35.257V34.22h-.694a2.3 2.3 0 0 1-.405.23 2 2 0 0 1-.336.108l-.043.01-.077.017q-.241.08-.536.08-.616 0-.965-.295a1.2 1.2 0 0 1-.149-.15h-7.195q0 .543.09 1.036zM97.775 35.257q.17-.492.255-1.036h-6.813q-.536.258-1.359.257h-1.367v-.257h-5.897v1.036zM82.592 36.31q-.01.582-.068 1.036H96.45a5.5 5.5 0 0 0 .824-1.036zM82.594 33.167h5.897V32.13h-5.897zM82.594 31.077h5.897v-1.036h-5.897zM82.594 28.988H96.85a7 7 0 0 0-.945-1.036h-13.31zM82.594 26.898H94.46a14 14 0 0 0-2.24-1.036h-9.626zM82.594 24.808h6.144l-.247-.07v-.445q0-.274.01-.52h-5.915q.008.247.008.52zM99.013 23.773v1.035h10.974a5 5 0 0 0-.431-1.035zM112.049 23.773a6.5 6.5 0 0 0-.447 1.035h14.427a6.6 6.6 0 0 0-.448-1.035zM128.409 23.773q.008.247.008.52v.515h5.736v-.515q0-.273.008-.52zM134.247 22.719h-5.923a5 5 0 0 0-.094-.49 3 3 0 0 0-.193-.546h6.497a3 3 0 0 0-.193.546q-.055.22-.094.49M141.945 23.773q.009.247.008.52v.515h5.71v-.515q0-.273.008-.52zM147.756 22.719h-5.896a5 5 0 0 0-.094-.49 3 3 0 0 0-.198-.546h6.48a3 3 0 0 0-.198.546 5 5 0 0 0-.094.49M123.763 21.683h-9.886a6 6 0 0 0-1.115 1.036h12.118a6 6 0 0 0-1.117-1.036M147.663 25.862h-5.71v1.036h5.71zM147.663 27.952h-5.71v1.036h5.71zM147.663 30.042h-5.71v.11l-.111-.11h-13.425v1.035h19.246zM147.663 32.131h-19.246v1.036h19.246zM126.454 33.167V32.13h-5.87v1.036zM117.073 33.167V32.13h-5.897v1.036zM105.729 33.167q.05-.097.119-.19.269-.294.858-.777l.093-.069h-7.767q-.215.505-.32 1.036zM98.114 33.167v-.083q0-.49-.053-.953H92.1a2.3 2.3 0 0 1 .01 1.036zM91.44 31.077h6.42a6.4 6.4 0 0 0-.38-1.036h-8.4l.162.041q1.498.395 2.197.995M100.579 30.042a6.4 6.4 0 0 0-.948 1.035h8.493a7.5 7.5 0 0 0 .924-1.036zM111.176 30.042v1.035h5.897v-1.036zM117.073 28.988h-5.897v-1.036h5.906a4 4 0 0 0-.009.28zM120.584 30.042v1.035h5.87v-1.036zM126.454 28.988h-5.87v-.755q0-.145-.009-.281h5.879zM128.417 28.988h5.736v-1.036h-5.736zM128.417 26.898h5.736v-1.036h-5.736zM126.299 25.862h-14.967a9 9 0 0 0-.13 1.036h6.153q.066-.118.147-.22.456-.536 1.313-.536.858 0 1.314.536.086.102.155.22h6.144a9 9 0 0 0-.129-1.036M110.206 26.898a7 7 0 0 0-.02-1.036h-7.555q.178.08.322.2.438.34.479.836zM103.092 27.952l-.032.04q-.316.383-1.107.996h7.721a5.7 5.7 0 0 0 .371-1.036zM100.618 25.862h-1.605v.924h.214l.402-.403a2.3 2.3 0 0 1 .456-.268q.243-.142.533-.253M136.313 27.952l-1.181 1.036h5.637l-1.054-1.036zM138.643 26.898h-1.129l.526-.46h.134zM.822 23.773h13.25v1.035H.831v-.515q0-.273-.01-.52M152.234 0q-.501 0-.917.17a2.13 2.13 0 0 0-1.217 1.177 2.35 2.35 0 0 0-.169.897q0 .489.169.898.17.41.482.716.312.3.735.468.416.163.917.163.495 0 .918-.163.422-.169.735-.468a2.1 2.1 0 0 0 .481-.716q.17-.41.169-.898 0-.488-.169-.897a2.147 2.147 0 0 0-1.216-1.178 2.5 2.5 0 0 0-.918-.169m-.859 3.656a1.4 1.4 0 0 1-.572-.566 1.7 1.7 0 0 1-.202-.846q0-.488.202-.845.201-.365.572-.566.365-.202.859-.202.488 0 .859.202.365.201.572.566.202.357.202.845 0 .482-.202.846a1.46 1.46 0 0 1-.572.566 1.8 1.8 0 0 1-.859.202q-.494 0-.859-.202m.176-1.789h.046a.3.3 0 0 1 .13-.084.5.5 0 0 1 .143-.02q.117 0 .215.059.09.058.143.156a.5.5 0 0 1 .052.227.5.5 0 0 1-.111.339.4.4 0 0 1-.306.13.35.35 0 0 1-.273-.124h-.045v.885q.059.025.162.04.098.012.208.012.404 0 .716-.156.306-.162.481-.449.176-.293.176-.67 0-.37-.163-.657a1.1 1.1 0 0 0-.455-.443 1.34 1.34 0 0 0-.664-.162q-.09 0-.156.006a1 1 0 0 1-.117.007.8.8 0 0 1-.182-.02z"/><path fill="#fff" fill-rule="evenodd" d="M15.035 15.635q-.724-1.796-.724-3.967t.723-3.967a9.35 9.35 0 0 1 2.091-3.11 9.7 9.7 0 0 1 3.19-2.037q1.85-.723 4.074-.723 2.199 0 4.048.723a9.4 9.4 0 0 1 3.19 2.038A9 9 0 0 1 33.69 7.7q.75 1.796.75 3.967t-.75 3.967a9 9 0 0 1-2.064 3.11 9.4 9.4 0 0 1-3.19 2.036q-1.848.724-4.047.724-2.225 0-4.074-.724a9.7 9.7 0 0 1-3.19-2.037 9.35 9.35 0 0 1-2.09-3.109m13.24-3.967q0-1.152-.508-2.037A3.53 3.53 0 0 0 26.4 8.237q-.858-.51-2.01-.51-1.154 0-2.038.51-.885.51-1.394 1.394-.482.884-.482 2.037 0 1.126.482 2.037.51.885 1.394 1.394.885.51 2.037.51 1.153 0 2.01-.51a3.53 3.53 0 0 0 1.367-1.394q.51-.911.51-2.037" clip-rule="evenodd"/><path fill="#fff" d="M10.668 15.662h-3.94V5.798q0-1.367.241-2.091.24-.723.643-1.045V2.42H.08v.242q.375.348.563 1.099.188.723.188 2.037v11.74q0 1.314-.215 2.064-.187.723-.616 1.072v.241h11.74q.645 0 1.26.054.616.053 1.072.188V14.83h-.214q-.375.429-1.126.643-.723.188-2.064.188M46.281 11.722q.188.723.188 2.064v2.087q-.16.003-.322.003-1.367 0-2.385-.482a3.86 3.86 0 0 1-1.555-1.42q-.536-.939-.536-2.172 0-1.313.59-2.252.589-.938 1.742-1.42 1.179-.51 2.868-.51.697 0 1.233.08.563.081 1.019.242.348.108.67.295.348.16.616.402h.241V2.072a3.9 3.9 0 0 1-1.18.188q-.4 0-1.152-.108a12 12 0 0 0-1.688-.107q-3.459 0-5.95 1.153-2.494 1.152-3.834 3.323t-1.34 5.254q0 2.868 1.34 5.013t3.726 3.323q2.412 1.18 5.602 1.18 1.743 0 3.43-.242a16.4 16.4 0 0 0 3.137-.75v-.241q-.402-.322-.59-.912t-.187-1.85v-3.51q0-1.341.187-2.064.188-.75.59-1.1v-.24h-7.023v.24q.375.35.563 1.1"/><path fill="#fff" fill-rule="evenodd" d="M53.724 15.635Q53 13.839 53 11.668t.724-3.967a9.35 9.35 0 0 1 2.09-3.11 9.7 9.7 0 0 1 3.19-2.037q1.85-.723 4.075-.723 2.198 0 4.047.723a9.4 9.4 0 0 1 3.19 2.038A9 9 0 0 1 72.38 7.7q.75 1.796.75 3.967t-.75 3.967a9 9 0 0 1-2.064 3.11 9.4 9.4 0 0 1-3.19 2.036q-1.85.724-4.048.724-2.224 0-4.074-.724a9.7 9.7 0 0 1-3.19-2.037 9.35 9.35 0 0 1-2.09-3.109m13.241-3.967q0-1.152-.51-2.037a3.53 3.53 0 0 0-1.366-1.394q-.858-.51-2.01-.51-1.153 0-2.038.51t-1.393 1.394q-.483.884-.483 2.037 0 1.126.483 2.037.51.885 1.393 1.394.886.51 2.038.51t2.01-.51a3.53 3.53 0 0 0 1.367-1.394q.51-.911.51-2.037" clip-rule="evenodd"/><path fill="#fff" d="M74.41 3.76q.187.724.187 2.038v11.74q0 1.314-.187 2.064-.189.723-.563 1.072v.241h7.398v-.24q-.375-.349-.563-1.073-.188-.75-.188-2.064V5.798q0-1.314.188-2.037.188-.75.563-1.1v-.24h-7.398v.24q.375.35.563 1.1"/><path fill="#fff" fill-rule="evenodd" d="M88.733 19.629q.24.723.643 1.045v.241h-7.532v-.24q.375-.349.563-1.073.188-.75.188-2.064V5.798q0-1.314-.215-2.037-.187-.75-.616-1.1v-.24h8.604q2.412 0 4.128.777 1.742.75 2.68 2.17.939 1.395.938 3.378 0 1.903-.804 3.378-.804 1.473-2.466 2.573-1.662 1.072-4.262 1.796l-2.09.6v.445q0 1.367.24 2.09m.509-7.88-.75.19V7.352h1.367q1.125 0 1.715.483.59.455.59 1.313 0 .965-.697 1.582-.697.616-2.225 1.018" clip-rule="evenodd"/><path fill="#fff" d="M108.797 7.969h.214v-5.79a3 3 0 0 1-.992.188q-.294 0-.884-.08a10 10 0 0 0-1.314-.081q-3.43 0-5.334 1.474-1.875 1.448-1.876 3.94 0 1.287.59 2.44.59 1.125 1.715 2.01l.724.536q1.045.778 1.42 1.233.376.455.376.992 0 .563-.483.938-.455.375-1.26.375-.455 0-.884-.107a4 4 0 0 1-.724-.322 2.4 2.4 0 0 1-.456-.268l-.401-.402h-.215v5.656q.536.187 1.581.295 1.073.134 2.091.134 3.619 0 5.576-1.555 1.956-1.581 1.956-4.262 0-1.018-.321-1.93a6.2 6.2 0 0 0-.939-1.715 8.1 8.1 0 0 0-1.527-1.501l-.724-.536a9 9 0 0 1-.858-.778 1.14 1.14 0 0 1-.241-.696q0-.402.348-.697.349-.295.965-.295.296 0 .536.08.269.053.456.134.242.108.456.268.242.135.429.322M111.176 5.798q0-1.314-.188-2.037-.187-.75-.562-1.1v-.24h7.371v.24q-.375.35-.563 1.1-.16.723-.161 2.037v7.8q0 1.018.429 1.554.456.537 1.313.537.858 0 1.314-.537.456-.536.455-1.554v-7.8q0-1.314-.187-2.037-.16-.75-.563-1.1v-.24h7.398v.24q-.402.35-.59 1.1-.187.723-.187 2.037v8.363q0 2.331-.912 3.967-.884 1.635-2.6 2.52-1.689.857-4.128.857-2.412 0-4.128-.858a6.2 6.2 0 0 1-2.6-2.52q-.91-1.635-.911-3.966zM128.203 3.787q.214.778.214 2.279v11.472q0 1.314-.187 2.064-.188.723-.563 1.072v.241h7.237v-.24q-.375-.349-.563-1.073-.188-.75-.188-2.064v-5.553l3.887 3.409h.134l3.78-3.714v5.858q0 1.314-.188 2.064-.188.723-.59 1.072v.241h7.264v-.24q-.401-.349-.59-1.073-.187-.75-.187-2.064V6.066q0-1.5.214-2.279.241-.777.67-1.125V2.42h-6.379v.188a1.9 1.9 0 0 1 .214 1.313q-.133.644-.804 1.287l-3.417 3.435-3.579-3.489q-.669-.67-.804-1.286-.134-.643.215-1.26V2.42h-6.46v.242q.456.348.67 1.125"/></svg>