<svg xmlns="http://www.w3.org/2000/svg" width="176" height="40" fill="none"><path fill="url(#a)" fill-rule="evenodd" d="M15 28a5 5 0 0 1-5-5V0H0v23c0 8.284 6.716 15 15 15h11V28z" clip-rule="evenodd"/><path fill="url(#b)" fill-rule="evenodd" d="M45 10a9 9 0 1 0 0 18 9 9 0 0 0 0-18m-19 9C26 8.507 34.507 0 45 0s19 8.507 19 19-8.507 19-19 19-19-8.507-19-19" clip-rule="evenodd"/><path fill="url(#c)" fill-rule="evenodd" d="M153 10a9 9 0 0 0-9 9 9 9 0 0 0 9 9 9 9 0 0 0 9-9 9 9 0 0 0-9-9m-19 9c0-10.493 8.507-19 19-19s19 8.507 19 19-8.507 19-19 19-19-8.507-19-19" clip-rule="evenodd"/><path fill="url(#d)" fill-rule="evenodd" d="M85 0C74.507 0 66 8.507 66 19s8.507 19 19 19h28c1.969 0 3.868-.3 5.654-.856L124 40l5.768-10.804A19 19 0 0 0 132 20.261V19c0-10.493-8.507-19-19-19zm37 19a9 9 0 0 0-9-9H85a9 9 0 1 0 0 18h28a9 9 0 0 0 9-8.93z" clip-rule="evenodd"/><path fill="url(#e)" d="M176 2.5a2.5 2.5 0 1 1-5 0 2.5 2.5 0 0 1 5 0"/><defs><linearGradient id="a" x1="96.5" x2="96.5" y1="0" y2="40" gradientUnits="userSpaceOnUse"><stop stop-color="#fff"/><stop offset="1" stop-color="#ADADAD"/></linearGradient><linearGradient id="b" x1="96.5" x2="96.5" y1="0" y2="40" gradientUnits="userSpaceOnUse"><stop stop-color="#fff"/><stop offset="1" stop-color="#ADADAD"/></linearGradient><linearGradient id="c" x1="96.5" x2="96.5" y1="0" y2="40" gradientUnits="userSpaceOnUse"><stop stop-color="#fff"/><stop offset="1" stop-color="#ADADAD"/></linearGradient><linearGradient id="d" x1="96.5" x2="96.5" y1="0" y2="40" gradientUnits="userSpaceOnUse"><stop stop-color="#fff"/><stop offset="1" stop-color="#ADADAD"/></linearGradient><linearGradient id="e" x1="96.5" x2="96.5" y1="0" y2="40" gradientUnits="userSpaceOnUse"><stop stop-color="#fff"/><stop offset="1" stop-color="#ADADAD"/></linearGradient></defs></svg>