<svg xmlns="http://www.w3.org/2000/svg" width="235" height="40" fill="none"><path fill="url(#a)" d="M90.341 12.375c0 7.62 0 10.627-10.108 10.627 10.108 0 10.108 3.008 10.108 10.628 0-7.575 0-10.628 9.949-10.628-9.949 0-9.949-3.053-9.949-10.627"/><path fill="url(#b)" fill-rule="evenodd" d="M40.504 40q-5.243 0-9.22-2.097-3.932-2.142-6.16-5.943-.36-.632-.66-1.298l-1.174 8.726H0v-.437h.044q1.572 0 2.534-.83.96-.83.961-2.403v-25.17q0-1.572-.96-2.534-.963-.96-2.535-.961H0v-.437h13.94v.437h-.176q-1.572 0-2.534.961-.96.962-.961 2.535v25.344q0 1.398.655 2.184.699.743 2.403.743h.918q3.89 0 6.554-2.403 2.6-2.345 3.33-6.558-1.19-3.084-1.19-6.857 0-5.113 2.184-8.914 2.23-3.844 6.161-5.943 3.976-2.14 9.22-2.14 5.118 0 8.986 2.038 4.127-2.039 9.585-2.039 1.705 0 2.797.131 1.135.088 2.01.219t1.923.262a35 35 0 0 0 2.709.087l1.31 8.74h-.436q-.788-4.152-3.54-6.511-2.71-2.36-6.773-2.36-2.49 0-4.544 1.18a10.3 10.3 0 0 0-2.44 1.953 12 12 0 0 0-1.056 1.324 14 14 0 0 0-.79 1.327 17 17 0 0 0-.882 1.974q-.164.435-.311.89a23 23 0 0 0-.29.966q-.785 3.015-.786 6.685 0 3.384.617 6.223l-.695 2.062a14 14 0 0 1-1.298 2.842q-.462.727-.976 1.31l-.032.038a15 15 0 0 1-2.772-3.386q-2.316-3.846-2.316-9.045 0-5.07 2.316-8.87a15.3 15.3 0 0 1 4.018-4.397 9.7 9.7 0 0 0-2.183-1.896q-1.879-1.18-4.15-1.18-2.274 0-4.152 1.18-1.88 1.18-3.19 3.321-1.354 2.141-2.097 5.2-.7 3.015-.7 6.686t.7 6.685q.743 3.015 2.097 5.156 1.31 2.142 3.19 3.321t4.151 1.18q2.273 0 4.151-1.18 1.879-1.18 3.234-3.32 1.311-2.142 2.01-5.157.743-3.015.743-6.685 0-3.32-.608-6.102l.75-1.993c.427-1.135.931-2.125 1.507-2.98a10.6 10.6 0 0 1 .914-1.149l.033-.027a15 15 0 0 1 2.604 3.38q2.228 3.801 2.228 8.914t-2.228 8.958a15.1 15.1 0 0 1-3.786 4.392 9.9 9.9 0 0 0 2.125 1.77q1.967 1.179 4.37 1.179 1.791 0 3.408-.612 1.66-.611 2.535-1.53V26.018q0-1.573-.962-2.534-.96-.962-2.534-.962h-.131v-.437h11.926q.18-4.54 2.167-7.996 2.229-3.844 6.16-5.943 3.978-2.14 9.22-2.14 5.244 0 9.177 2.14 3.977 2.098 6.161 5.943 1.436 2.45 1.947 5.443v-8.982q0-1.573-.961-2.535-.962-.96-2.535-.961h-.044v-.437h26.291q3.364.044 5.856 1.18 2.534 1.092 3.932 3.059.526.717.861 1.528.537-2.53 2.609-4.15 2.84-2.229 7.472-2.229 1.136 0 1.835.088.296.034.578.076.426.063.821.142.7.13 1.616.219.918.087 2.36.087h13.804v.437h-.131q-1.574 0-2.535.961-.961.962-.961 2.535v17.347q0 4.632 2.36 7.341 2.403 2.666 6.467 2.666 4.107 0 6.467-2.71 2.36-2.752 2.359-7.297V11.204q0-1.88-1.136-2.971-1.136-1.093-3.015-1.18v-.437h14.421l10.662 24.689L217.74 6.616h8.171v.437q-1.398 0-2.359.83t-.874 2.272l2.228 25.869q.219 1.485 1.399 2.228 1.223.743 2.403.743v.393h-13.546v-.393q.742 0 1.53-.35a3.1 3.1 0 0 0 1.267-1.005q.524-.655.393-1.529l-2.141-24.12L204.063 40l-12.235-28.053-2.053 22.984q-.175 1.749 1.005 2.84 1.179 1.093 2.883 1.18v.437h-8.739v-.437q1.66-.087 2.797-1.223 1.135-1.137 1.311-2.84l2.185-24.165q-.83-1.704-2.098-2.665a4 4 0 0 0-.455-.324q-.344.216-.639.499-1.136 1.092-1.136 2.971v16.692q0 3.67-1.529 6.38-1.487 2.71-4.326 4.238Q178.238 40 174.348 40q-3.845 0-6.685-1.486-2.841-1.485-4.413-4.194-1.53-2.754-1.53-6.424V10.55q0-1.573-.961-2.535-.927-.925-2.421-.96l.415 8.389h-.437q-.612-4.064-2.622-6.424t-4.85-2.36q-2.01 0-3.234 1.18-1.179 1.18-1.179 3.147 0 1.704 1.092 3.277 1.136 1.53 3.889 3.583l1.879 1.398q2.884 2.098 4.544 3.89 1.705 1.746 2.447 3.408a8.56 8.56 0 0 1 .743 3.539q0 2.885-1.442 5.112-1.441 2.229-4.02 3.496-2.534 1.224-5.986 1.311a17 17 0 0 1-1.879-.087 23 23 0 0 1-1.398-.219 18 18 0 0 0-1.705-.218q-1.005-.088-2.752-.088l-1.53-11.36h.524q.656 5.374 2.972 8.302 2.36 2.883 6.03 2.884 2.709 0 4.413-1.53t1.704-3.976q0-1.05-.393-2.01-.35-.962-1.223-2.054t-2.316-2.36q-1.443-1.31-3.583-2.927l-1.792-1.355q-3.278-2.49-4.544-4.457a8 8 0 0 1-.674-1.277 7.5 7.5 0 0 1-1.267 2.894q-1.398 1.966-4.02 3.102-2.578 1.093-6.117 1.093h-4.02v11.099q0 1.572.961 2.534.962.961 2.534.961h.088v.437h-25.505v-.437h.044q1.574 0 2.535-.961.96-.961.961-2.534v-8.977q-.51 3.004-1.947 5.481-2.184 3.801-6.161 5.943Q95.584 40 90.341 40t-9.22-2.097q-3.933-2.142-6.161-5.943-2.176-3.83-2.185-8.916-.295.186-.547.439-.961.96-.961 2.534V37.16q-.874.873-2.797 1.53-1.88.61-4.282.96-2.36.35-4.72.35-5.704 0-9.934-2.02Q45.651 40 40.504 40m53.988-1.879q-1.879 1.18-4.151 1.18-2.273 0-4.151-1.18-1.88-1.18-3.19-3.32-1.354-2.142-2.098-5.157-.699-3.015-.699-6.685 0-3.672.7-6.686.743-3.059 2.097-5.2 1.31-2.14 3.19-3.321 1.878-1.18 4.15-1.18 2.274 0 4.152 1.18t3.233 3.321q1.312 2.141 2.01 5.2.743 3.015.743 6.686t-.742 6.685q-.7 3.015-2.01 5.156-1.355 2.142-3.234 3.321m23.824-.131q-.614.614-1.478.836a3.16 3.16 0 0 1-1.479-.836q-.961-.961-.961-2.534V10.549q0-1.573.961-2.535a3.16 3.16 0 0 1 1.479-.836 3.16 3.16 0 0 1 1.478.836q.962.962.962 2.535v24.907q0 1.572-.962 2.534m10.269-14.201h-2.578V7.184h2.534q1.88 0 3.277 1.093 1.399 1.048 2.142 2.927.786 1.88.786 4.282 0 2.404-.786 4.283-.743 1.878-2.142 2.971-1.355 1.05-3.233 1.049" clip-rule="evenodd"/><path fill="url(#c)" d="M234.463 3.036a3.037 3.037 0 1 1-6.074 0 3.037 3.037 0 0 1 6.074 0"/><defs><linearGradient id="a" x1="128.555" x2="128.555" y1="0" y2="40" gradientUnits="userSpaceOnUse"><stop stop-color="#fff"/><stop offset="1" stop-color="#ADADAD"/></linearGradient><linearGradient id="b" x1="128.555" x2="128.555" y1="0" y2="40" gradientUnits="userSpaceOnUse"><stop stop-color="#fff"/><stop offset="1" stop-color="#ADADAD"/></linearGradient><linearGradient id="c" x1="128.555" x2="128.555" y1="0" y2="40" gradientUnits="userSpaceOnUse"><stop stop-color="#fff"/><stop offset="1" stop-color="#ADADAD"/></linearGradient></defs></svg>