<?xml version="1.0" encoding="UTF-8"?>
<svg version="1.1" xmlns="http://www.w3.org/2000/svg" width="48" height="48">
<path d="M0 0 C0.66209473 -0.00095673 1.32418945 -0.00191345 2.00634766 -0.00289917 C3.40852961 -0.00358076 4.8107147 -0.00172792 6.21289062 0.00244141 C8.36595713 0.00779004 10.51881502 0.0024958 12.671875 -0.00390625 C14.03125046 -0.00324546 15.3906258 -0.00196429 16.75 0 C18.61785156 0.00169189 18.61785156 0.00169189 20.5234375 0.00341797 C23.375 0.1328125 23.375 0.1328125 24.375 1.1328125 C24.47603255 3.93274847 24.51470088 6.70749894 24.5078125 9.5078125 C24.50876923 10.34747559 24.50972595 11.18713867 24.51071167 12.05224609 C24.51139348 13.83105545 24.50953917 15.60986727 24.50537109 17.38867188 C24.50002283 20.12115026 24.50531605 22.85346426 24.51171875 25.5859375 C24.51105797 27.3098962 24.50977681 29.03385479 24.5078125 30.7578125 C24.50983673 31.58071777 24.51186096 32.40362305 24.51394653 33.25146484 C24.48995054 39.01786196 24.48995054 39.01786196 23.375 40.1328125 C21.16849344 40.23293651 18.95877614 40.2636243 16.75 40.265625 C16.08790527 40.26658173 15.42581055 40.26753845 14.74365234 40.26852417 C13.34147039 40.26920576 11.9392853 40.26735292 10.53710938 40.26318359 C8.38404287 40.25783496 6.23118498 40.2631292 4.078125 40.26953125 C2.71874954 40.26887046 1.3593742 40.26758929 0 40.265625 C-1.24523437 40.26449707 -2.49046875 40.26336914 -3.7734375 40.26220703 C-6.625 40.1328125 -6.625 40.1328125 -7.625 39.1328125 C-7.72603255 36.33287653 -7.76470088 33.55812606 -7.7578125 30.7578125 C-7.75876923 29.91814941 -7.75972595 29.07848633 -7.76071167 28.21337891 C-7.76139348 26.43456955 -7.75953917 24.65575773 -7.75537109 22.87695312 C-7.75002283 20.14447474 -7.75531605 17.41216074 -7.76171875 14.6796875 C-7.76105797 12.9557288 -7.75977681 11.23177021 -7.7578125 9.5078125 C-7.75983673 8.68490723 -7.76186096 7.86200195 -7.76394653 7.01416016 C-7.73365835 -0.26429364 -7.12369236 0.00645262 0 0 Z M-3.625 4.1328125 C-3.625 14.6928125 -3.625 25.2528125 -3.625 36.1328125 C4.295 36.1328125 12.215 36.1328125 20.375 36.1328125 C20.375 25.5728125 20.375 15.0128125 20.375 4.1328125 C12.455 4.1328125 4.535 4.1328125 -3.625 4.1328125 Z " fill="#FCC319" transform="translate(15.625,3.8671875)"/>
<path d="M0 0 C5.28 0 10.56 0 16 0 C16 1.65 16 3.3 16 5 C10.72 5 5.44 5 0 5 C0 3.35 0 1.7 0 0 Z " fill="#FCC319" transform="translate(16,31)"/>
<path d="M0 0 C5.28 0 10.56 0 16 0 C16 1.32 16 2.64 16 4 C10.72 4 5.44 4 0 4 C0 2.68 0 1.36 0 0 Z " fill="#FCC419" transform="translate(16,24)"/>
<path d="M0 0 C2.64 0 5.28 0 8 0 C8 1.32 8 2.64 8 4 C5.36 4 2.72 4 0 4 C0 2.68 0 1.36 0 0 Z " fill="#FCC419" transform="translate(16,12)"/>
<path d="M0 0 C1.32 0 2.64 0 4 0 C4 1.32 4 2.64 4 4 C2.68 4 1.36 4 0 4 C0 2.68 0 1.36 0 0 Z " fill="#FCC419" transform="translate(28,12)"/>
</svg>
