<?xml version="1.0" encoding="UTF-8"?>
<svg version="1.1" xmlns="http://www.w3.org/2000/svg" width="64" height="64">
<path d="M0 0 C1.19794189 -0.00315216 2.39588379 -0.00630432 3.63012695 -0.009552 C4.93425537 -0.00752777 6.23838379 -0.00550354 7.58203125 -0.00341797 C8.9234214 -0.00409107 10.26481144 -0.00506115 11.60620117 -0.00631714 C14.42074746 -0.00779382 17.23526207 -0.00564051 20.04980469 -0.00097656 C23.66493756 0.00472073 27.2799962 0.00144156 30.89512634 -0.00454903 C33.66598067 -0.00815544 36.43681727 -0.00701569 39.20767212 -0.00442123 C41.19142708 -0.0034258 43.17518272 -0.00647288 45.15893555 -0.009552 C46.35687744 -0.00639984 47.55481934 -0.00324768 48.7890625 0 C49.84971924 0.00079559 50.91037598 0.00159119 52.00317383 0.00241089 C54.39453125 0.12939453 54.39453125 0.12939453 55.39453125 1.12939453 C55.49238466 2.4748378 55.5225111 3.82532016 55.52392578 5.17431641 C55.52707794 6.03190552 55.5302301 6.88949463 55.53347778 7.77307129 C55.53145355 8.70534546 55.52942932 9.63761963 55.52734375 10.59814453 C55.52830048 11.54878784 55.5292572 12.49943115 55.53024292 13.47888184 C55.53092482 15.49308335 55.52906987 17.50728705 55.52490234 19.52148438 C55.51955423 22.61609808 55.52484702 25.71056663 55.53125 28.80517578 C55.53058922 30.75699902 55.52930806 32.70882217 55.52734375 34.66064453 C55.52936798 35.5929187 55.53139221 36.52519287 55.53347778 37.48571777 C55.52874954 38.77210144 55.52874954 38.77210144 55.52392578 40.08447266 C55.52313019 40.84312622 55.52233459 41.60177979 55.52151489 42.38342285 C55.39453125 44.12939453 55.39453125 44.12939453 54.39453125 45.12939453 C52.68889347 45.28680059 50.97725881 45.38032845 49.265625 45.44580078 C48.23115234 45.48769531 47.19667969 45.52958984 46.13085938 45.57275391 C45.04224609 45.61207031 43.95363281 45.65138672 42.83203125 45.69189453 C41.19331055 45.75666992 41.19331055 45.75666992 39.52148438 45.82275391 C36.81263561 45.92921521 34.10369133 46.0312297 31.39453125 46.12939453 C31.88953125 49.09939453 31.88953125 49.09939453 32.39453125 52.12939453 C34.04453125 52.45939453 35.69453125 52.78939453 37.39453125 53.12939453 C37.06453125 54.77939453 36.73453125 56.42939453 36.39453125 58.12939453 C28.47453125 58.12939453 20.55453125 58.12939453 12.39453125 58.12939453 C11.89953125 55.65439453 11.89953125 55.65439453 11.39453125 53.12939453 C13.86953125 52.63439453 13.86953125 52.63439453 16.39453125 52.12939453 C16.72453125 50.14939453 17.05453125 48.16939453 17.39453125 46.12939453 C10.47245306 45.36633079 3.69498669 45.04866537 -3.26953125 45.19189453 C-5.60546875 45.12939453 -5.60546875 45.12939453 -6.60546875 44.12939453 C-6.70332216 42.78395126 -6.7334486 41.4334689 -6.73486328 40.08447266 C-6.73801544 39.22688354 -6.7411676 38.36929443 -6.74441528 37.48571777 C-6.74239105 36.5534436 -6.74036682 35.62116943 -6.73828125 34.66064453 C-6.73923798 33.71000122 -6.7401947 32.75935791 -6.74118042 31.77990723 C-6.74186232 29.76570571 -6.74000737 27.75150201 -6.73583984 25.73730469 C-6.73049173 22.64269099 -6.73578452 19.54822243 -6.7421875 16.45361328 C-6.74152672 14.50179004 -6.74024556 12.54996689 -6.73828125 10.59814453 C-6.74030548 9.66587036 -6.74232971 8.73359619 -6.74441528 7.77307129 C-6.74126312 6.91548218 -6.73811096 6.05789307 -6.73486328 5.17431641 C-6.73406769 4.41566284 -6.73327209 3.65700928 -6.73245239 2.87536621 C-6.44652733 -1.05598311 -3.23117164 0.00242369 0 0 Z " fill="#E0E0E0" transform="translate(7.60546875,2.87060546875)"/>
<path d="M0 0 C1.19794189 -0.00315216 2.39588379 -0.00630432 3.63012695 -0.009552 C4.93425537 -0.00752777 6.23838379 -0.00550354 7.58203125 -0.00341797 C8.9234214 -0.00409107 10.26481144 -0.00506115 11.60620117 -0.00631714 C14.42074746 -0.00779382 17.23526207 -0.00564051 20.04980469 -0.00097656 C23.66493756 0.00472073 27.2799962 0.00144156 30.89512634 -0.00454903 C33.66598067 -0.00815544 36.43681727 -0.00701569 39.20767212 -0.00442123 C41.19142708 -0.0034258 43.17518272 -0.00647288 45.15893555 -0.009552 C46.35687744 -0.00639984 47.55481934 -0.00324768 48.7890625 0 C49.84971924 0.00079559 50.91037598 0.00159119 52.00317383 0.00241089 C54.39453125 0.12939453 54.39453125 0.12939453 55.39453125 1.12939453 C55.49238466 2.4748378 55.5225111 3.82532016 55.52392578 5.17431641 C55.52707794 6.03190552 55.5302301 6.88949463 55.53347778 7.77307129 C55.53145355 8.70534546 55.52942932 9.63761963 55.52734375 10.59814453 C55.52830048 11.54878784 55.5292572 12.49943115 55.53024292 13.47888184 C55.53092482 15.49308335 55.52906987 17.50728705 55.52490234 19.52148438 C55.51955423 22.61609808 55.52484702 25.71056663 55.53125 28.80517578 C55.53058922 30.75699902 55.52930806 32.70882217 55.52734375 34.66064453 C55.52936798 35.5929187 55.53139221 36.52519287 55.53347778 37.48571777 C55.52874954 38.77210144 55.52874954 38.77210144 55.52392578 40.08447266 C55.52313019 40.84312622 55.52233459 41.60177979 55.52151489 42.38342285 C55.39453125 44.12939453 55.39453125 44.12939453 54.39453125 45.12939453 C52.68889347 45.28680059 50.97725881 45.38032845 49.265625 45.44580078 C48.23115234 45.48769531 47.19667969 45.52958984 46.13085938 45.57275391 C45.04224609 45.61207031 43.95363281 45.65138672 42.83203125 45.69189453 C41.19331055 45.75666992 41.19331055 45.75666992 39.52148438 45.82275391 C36.81263561 45.92921521 34.10369133 46.0312297 31.39453125 46.12939453 C31.88953125 49.09939453 31.88953125 49.09939453 32.39453125 52.12939453 C34.04453125 52.45939453 35.69453125 52.78939453 37.39453125 53.12939453 C37.06453125 54.77939453 36.73453125 56.42939453 36.39453125 58.12939453 C28.47453125 58.12939453 20.55453125 58.12939453 12.39453125 58.12939453 C11.89953125 55.65439453 11.89953125 55.65439453 11.39453125 53.12939453 C13.86953125 52.63439453 13.86953125 52.63439453 16.39453125 52.12939453 C16.72453125 50.14939453 17.05453125 48.16939453 17.39453125 46.12939453 C10.47245306 45.36633079 3.69498669 45.04866537 -3.26953125 45.19189453 C-5.60546875 45.12939453 -5.60546875 45.12939453 -6.60546875 44.12939453 C-6.70332216 42.78395126 -6.7334486 41.4334689 -6.73486328 40.08447266 C-6.73801544 39.22688354 -6.7411676 38.36929443 -6.74441528 37.48571777 C-6.74239105 36.5534436 -6.74036682 35.62116943 -6.73828125 34.66064453 C-6.73923798 33.71000122 -6.7401947 32.75935791 -6.74118042 31.77990723 C-6.74186232 29.76570571 -6.74000737 27.75150201 -6.73583984 25.73730469 C-6.73049173 22.64269099 -6.73578452 19.54822243 -6.7421875 16.45361328 C-6.74152672 14.50179004 -6.74024556 12.54996689 -6.73828125 10.59814453 C-6.74030548 9.66587036 -6.74232971 8.73359619 -6.74441528 7.77307129 C-6.74126312 6.91548218 -6.73811096 6.05789307 -6.73486328 5.17431641 C-6.73406769 4.41566284 -6.73327209 3.65700928 -6.73245239 2.87536621 C-6.44652733 -1.05598311 -3.23117164 0.00242369 0 0 Z M-1.60546875 6.12939453 C-1.60546875 17.34939453 -1.60546875 28.56939453 -1.60546875 40.12939453 C15.55453125 40.12939453 32.71453125 40.12939453 50.39453125 40.12939453 C50.39453125 28.90939453 50.39453125 17.68939453 50.39453125 6.12939453 C33.23453125 6.12939453 16.07453125 6.12939453 -1.60546875 6.12939453 Z " fill="#856B1A" transform="translate(7.60546875,2.87060546875)"/>
<path d="M0 0 C0.66209473 -0.00095673 1.32418945 -0.00191345 2.00634766 -0.00289917 C3.40852961 -0.00358076 4.8107147 -0.00172792 6.21289062 0.00244141 C8.36595713 0.00779004 10.51881502 0.0024958 12.671875 -0.00390625 C14.03125046 -0.00324546 15.3906258 -0.00196429 16.75 0 C18.61785156 0.00169189 18.61785156 0.00169189 20.5234375 0.00341797 C23.375 0.1328125 23.375 0.1328125 24.375 1.1328125 C24.44744053 3.15245449 24.45877188 5.17448374 24.4375 7.1953125 C24.42847656 8.30003906 24.41945312 9.40476562 24.41015625 10.54296875 C24.39855469 11.39761719 24.38695312 12.25226562 24.375 13.1328125 C25.035 13.1328125 25.695 13.1328125 26.375 13.1328125 C27.035 15.1128125 27.695 17.0928125 28.375 19.1328125 C27.735625 19.3803125 27.09625 19.6278125 26.4375 19.8828125 C24.18196091 20.93564683 24.18196091 20.93564683 23.74609375 23.2109375 C23.62363281 23.84515625 23.50117187 24.479375 23.375 25.1328125 C19.12085377 25.15746872 14.86674502 25.17565149 10.61254883 25.18774414 C9.16429927 25.19278351 7.71605483 25.19961503 6.26782227 25.20825195 C4.19025412 25.22033497 2.11275303 25.22604461 0.03515625 25.23046875 C-1.21644287 25.23570557 -2.46804199 25.24094238 -3.75756836 25.24633789 C-6.625 25.1328125 -6.625 25.1328125 -7.625 24.1328125 C-7.72432153 22.43722524 -7.75580007 20.73755503 -7.7578125 19.0390625 C-7.75974609 17.49412109 -7.75974609 17.49412109 -7.76171875 15.91796875 C-7.75785156 14.83386719 -7.75398437 13.74976563 -7.75 12.6328125 C-7.75386719 11.54871094 -7.75773438 10.46460938 -7.76171875 9.34765625 C-7.76042969 8.31769531 -7.75914063 7.28773437 -7.7578125 6.2265625 C-7.75668457 5.27458984 -7.75555664 4.32261719 -7.75439453 3.34179688 C-7.48063142 -1.33180432 -3.92412907 0.00355446 0 0 Z " fill="#E9BA1F" transform="translate(17.625,12.8671875)"/>
<path d="M0 0 C1.19794189 -0.00315216 2.39588379 -0.00630432 3.63012695 -0.009552 C4.93425537 -0.00752777 6.23838379 -0.00550354 7.58203125 -0.00341797 C8.9234214 -0.00409107 10.26481144 -0.00506115 11.60620117 -0.00631714 C14.42074746 -0.00779382 17.23526207 -0.00564051 20.04980469 -0.00097656 C23.66493756 0.00472073 27.2799962 0.00144156 30.89512634 -0.00454903 C33.66598067 -0.00815544 36.43681727 -0.00701569 39.20767212 -0.00442123 C41.19142708 -0.0034258 43.17518272 -0.00647288 45.15893555 -0.009552 C46.35687744 -0.00639984 47.55481934 -0.00324768 48.7890625 0 C49.84971924 0.00079559 50.91037598 0.00159119 52.00317383 0.00241089 C54.39453125 0.12939453 54.39453125 0.12939453 55.39453125 1.12939453 C55.49238466 2.4748378 55.5225111 3.82532016 55.52392578 5.17431641 C55.52707794 6.03190552 55.5302301 6.88949463 55.53347778 7.77307129 C55.53145355 8.70534546 55.52942932 9.63761963 55.52734375 10.59814453 C55.52830048 11.54878784 55.5292572 12.49943115 55.53024292 13.47888184 C55.53092482 15.49308335 55.52906987 17.50728705 55.52490234 19.52148438 C55.51955423 22.61609808 55.52484702 25.71056663 55.53125 28.80517578 C55.53058922 30.75699902 55.52930806 32.70882217 55.52734375 34.66064453 C55.52936798 35.5929187 55.53139221 36.52519287 55.53347778 37.48571777 C55.52874954 38.77210144 55.52874954 38.77210144 55.52392578 40.08447266 C55.52313019 40.84312622 55.52233459 41.60177979 55.52151489 42.38342285 C55.39453125 44.12939453 55.39453125 44.12939453 54.39453125 45.12939453 C52.68889347 45.28680059 50.97725881 45.38032845 49.265625 45.44580078 C48.23115234 45.48769531 47.19667969 45.52958984 46.13085938 45.57275391 C45.04224609 45.61207031 43.95363281 45.65138672 42.83203125 45.69189453 C41.19331055 45.75666992 41.19331055 45.75666992 39.52148438 45.82275391 C36.81263561 45.92921521 34.10369133 46.0312297 31.39453125 46.12939453 C31.88953125 49.09939453 31.88953125 49.09939453 32.39453125 52.12939453 C34.04453125 52.45939453 35.69453125 52.78939453 37.39453125 53.12939453 C37.06453125 54.77939453 36.73453125 56.42939453 36.39453125 58.12939453 C28.47453125 58.12939453 20.55453125 58.12939453 12.39453125 58.12939453 C11.89953125 55.65439453 11.89953125 55.65439453 11.39453125 53.12939453 C13.86953125 52.63439453 13.86953125 52.63439453 16.39453125 52.12939453 C16.72453125 50.14939453 17.05453125 48.16939453 17.39453125 46.12939453 C14.09453125 45.79939453 10.79453125 45.46939453 7.39453125 45.12939453 C10.47492978 43.07579551 11.18937823 42.87200719 14.68237305 42.81054688 C15.54303879 42.79067719 16.40370453 42.7708075 17.29045105 42.75033569 C18.2155397 42.73878448 19.14062836 42.72723328 20.09375 42.71533203 C21.04393509 42.69596588 21.99412018 42.67659973 22.97309875 42.65664673 C26.00931815 42.59684541 29.04557544 42.55046324 32.08203125 42.50439453 C34.13999053 42.46621527 36.19793383 42.42716357 38.25585938 42.38720703 C43.30200036 42.28950039 48.3479701 42.20993604 53.39453125 42.12939453 C53.39453125 29.25939453 53.39453125 16.38939453 53.39453125 3.12939453 C34.25453125 3.12939453 15.11453125 3.12939453 -4.60546875 3.12939453 C-4.60546875 15.99939453 -4.60546875 28.86939453 -4.60546875 42.12939453 C-0.97546875 42.45939453 2.65453125 42.78939453 6.39453125 43.12939453 C6.39453125 43.78939453 6.39453125 44.44939453 6.39453125 45.12939453 C4.41543727 45.15626006 2.43624154 45.17572829 0.45703125 45.19189453 C-0.64511719 45.20349609 -1.74726563 45.21509766 -2.8828125 45.22705078 C-5.60546875 45.12939453 -5.60546875 45.12939453 -6.60546875 44.12939453 C-6.70332216 42.78395126 -6.7334486 41.4334689 -6.73486328 40.08447266 C-6.73801544 39.22688354 -6.7411676 38.36929443 -6.74441528 37.48571777 C-6.74239105 36.5534436 -6.74036682 35.62116943 -6.73828125 34.66064453 C-6.73923798 33.71000122 -6.7401947 32.75935791 -6.74118042 31.77990723 C-6.74186232 29.76570571 -6.74000737 27.75150201 -6.73583984 25.73730469 C-6.73049173 22.64269099 -6.73578452 19.54822243 -6.7421875 16.45361328 C-6.74152672 14.50179004 -6.74024556 12.54996689 -6.73828125 10.59814453 C-6.74030548 9.66587036 -6.74232971 8.73359619 -6.74441528 7.77307129 C-6.74126312 6.91548218 -6.73811096 6.05789307 -6.73486328 5.17431641 C-6.73406769 4.41566284 -6.73327209 3.65700928 -6.73245239 2.87536621 C-6.44652733 -1.05598311 -3.23117164 0.00242369 0 0 Z " fill="#382B05" transform="translate(7.60546875,2.87060546875)"/>
<path d="M0 0 C0.66209473 -0.00095673 1.32418945 -0.00191345 2.00634766 -0.00289917 C3.40852961 -0.00358076 4.8107147 -0.00172792 6.21289062 0.00244141 C8.36595713 0.00779004 10.51881502 0.0024958 12.671875 -0.00390625 C14.03125046 -0.00324546 15.3906258 -0.00196429 16.75 0 C18.61785156 0.00169189 18.61785156 0.00169189 20.5234375 0.00341797 C23.375 0.1328125 23.375 0.1328125 24.375 1.1328125 C24.44744053 3.15245449 24.45877188 5.17448374 24.4375 7.1953125 C24.42847656 8.30003906 24.41945312 9.40476562 24.41015625 10.54296875 C24.39855469 11.39761719 24.38695312 12.25226562 24.375 13.1328125 C25.035 13.1328125 25.695 13.1328125 26.375 13.1328125 C26.045 14.4528125 25.715 15.7728125 25.375 17.1328125 C24.88 15.6478125 24.88 15.6478125 24.375 14.1328125 C23.385 14.1328125 22.395 14.1328125 21.375 14.1328125 C21.375 15.1228125 21.375 16.1128125 21.375 17.1328125 C22.695 17.7928125 24.015 18.4528125 25.375 19.1328125 C21.5 20.1328125 21.5 20.1328125 20.375 20.1328125 C20.375 17.4928125 20.375 14.8528125 20.375 12.1328125 C21.035 12.1328125 21.695 12.1328125 22.375 12.1328125 C22.375 10.1528125 22.375 8.1728125 22.375 6.1328125 C15.445 6.1328125 8.515 6.1328125 1.375 6.1328125 C1.045 4.8128125 0.715 3.4928125 0.375 2.1328125 C-1.605 2.1328125 -3.585 2.1328125 -5.625 2.1328125 C-5.625 9.3928125 -5.625 16.6528125 -5.625 24.1328125 C3.945 24.1328125 13.515 24.1328125 23.375 24.1328125 C23.375 24.4628125 23.375 24.7928125 23.375 25.1328125 C19.12085377 25.15746872 14.86674502 25.17565149 10.61254883 25.18774414 C9.16429927 25.19278351 7.71605483 25.19961503 6.26782227 25.20825195 C4.19025412 25.22033497 2.11275303 25.22604461 0.03515625 25.23046875 C-1.21644287 25.23570557 -2.46804199 25.24094238 -3.75756836 25.24633789 C-6.625 25.1328125 -6.625 25.1328125 -7.625 24.1328125 C-7.72432153 22.43722524 -7.75580007 20.73755503 -7.7578125 19.0390625 C-7.75974609 17.49412109 -7.75974609 17.49412109 -7.76171875 15.91796875 C-7.75785156 14.83386719 -7.75398437 13.74976563 -7.75 12.6328125 C-7.75386719 11.54871094 -7.75773438 10.46460938 -7.76171875 9.34765625 C-7.76042969 8.31769531 -7.75914063 7.28773437 -7.7578125 6.2265625 C-7.75668457 5.27458984 -7.75555664 4.32261719 -7.75439453 3.34179688 C-7.48063142 -1.33180432 -3.92412907 0.00355446 0 0 Z " fill="#393016" transform="translate(17.625,12.8671875)"/>
<path d="M0 0 C0.74886475 0.00523682 1.49772949 0.01047363 2.26928711 0.01586914 C3.07817383 0.0190918 3.88706055 0.02231445 4.72045898 0.02563477 C5.5705957 0.03401367 6.42073242 0.04239258 7.29663086 0.05102539 C8.15063477 0.05553711 9.00463867 0.06004883 9.88452148 0.06469727 C12.00108749 0.07652166 14.11761771 0.0944577 16.23413086 0.11352539 C16.89413086 2.09352539 17.55413086 4.07352539 18.23413086 6.11352539 C18.56413086 6.11352539 18.89413086 6.11352539 19.23413086 6.11352539 C19.48413086 11.73852539 19.48413086 11.73852539 17.23413086 15.11352539 C14.60913086 15.30102539 14.60913086 15.30102539 12.23413086 15.11352539 C12.23413086 13.79352539 12.23413086 12.47352539 12.23413086 11.11352539 C14.21413086 11.11352539 16.19413086 11.11352539 18.23413086 11.11352539 C18.23413086 10.45352539 18.23413086 9.79352539 18.23413086 9.11352539 C13.77913086 9.60852539 13.77913086 9.60852539 9.23413086 10.11352539 C9.23413086 11.76352539 9.23413086 13.41352539 9.23413086 15.11352539 C7.91413086 15.11352539 6.59413086 15.11352539 5.23413086 15.11352539 C5.23413086 14.12352539 5.23413086 13.13352539 5.23413086 12.11352539 C4.84225586 12.60852539 4.45038086 13.10352539 4.04663086 13.61352539 C1.68321371 15.56945682 0.21978083 15.35560512 -2.76586914 15.11352539 C-2.58024414 14.30915039 -2.39461914 13.50477539 -2.20336914 12.67602539 C-2.05899414 11.83040039 -1.91461914 10.98477539 -1.76586914 10.11352539 C-2.09586914 9.78352539 -2.42586914 9.45352539 -2.76586914 9.11352539 C-2.89868164 7.30102539 -2.89868164 7.30102539 -2.89086914 5.11352539 C-2.89344727 4.39165039 -2.89602539 3.66977539 -2.89868164 2.92602539 C-2.72026442 0.49115503 -2.44115658 0.15693873 0 0 Z " fill="#3A3114" transform="translate(18.765869140625,19.886474609375)"/>
<path d="M0 0 C0.33 0 0.66 0 1 0 C1.33 11.55 1.66 23.1 2 35 C19.82 35.33 37.64 35.66 56 36 C55.6328422 26.77107485 55.6328422 26.77107485 55.25170898 17.54272461 C55.20860596 16.38264893 55.16550293 15.22257324 55.12109375 14.02734375 C55.0739624 12.84906006 55.02683105 11.67077637 54.97827148 10.45678711 C55.00073592 6.88292221 55.41592021 3.52217815 56 0 C56.33 0 56.66 0 57 0 C57.89663672 4.58556772 58.11633191 8.9170222 58.09765625 13.5859375 C58.0962413 14.28772125 58.09482635 14.989505 58.09336853 15.71255493 C58.0878129 17.93341504 58.07526892 20.15417084 58.0625 22.375 C58.05747926 23.88932145 58.05291736 25.4036445 58.04882812 26.91796875 C58.03785807 30.61201252 58.02062449 34.30599606 58 38 C51.50809681 38.16964611 45.01600007 38.32925375 38.52368164 38.48217773 C36.31919891 38.5352531 34.11476844 38.59055102 31.91040039 38.64819336 C28.72553781 38.73107618 25.54056734 38.80572631 22.35546875 38.87890625 C20.89852852 38.91945885 20.89852852 38.91945885 19.41215515 38.96083069 C18.0019384 38.99097511 18.0019384 38.99097511 16.56323242 39.02172852 C15.7527092 39.04171402 14.94218597 39.06169952 14.10710144 39.08229065 C9.39256898 38.95742767 4.69681725 38.42698339 0 38 C0 25.46 0 12.92 0 0 Z " fill="#FAC318" transform="translate(3,8)"/>
<path d="M0 0 C4.29 0 8.58 0 13 0 C12.34 2.97 11.68 5.94 11 9 C14.96 9 18.92 9 23 9 C22.34 6.03 21.68 3.06 21 0 C28.92 0 36.84 0 45 0 C45 0.33 45 0.66 45 1 C34.605 1.495 34.605 1.495 24 2 C24.33 3.98 24.66 5.96 25 8 C27.475 8.495 27.475 8.495 30 9 C29.67 10.65 29.34 12.3 29 14 C21.08 14 13.16 14 5 14 C4.67 12.35 4.34 10.7 4 9 C5.65 8.67 7.3 8.34 9 8 C9.33 6.02 9.66 4.04 10 2 C6.7 1.67 3.4 1.34 0 1 C0 0.67 0 0.34 0 0 Z " fill="#060500" transform="translate(15,47)"/>
<path d="M0 0 C0.66 0 1.32 0 2 0 C2 10.89 2 21.78 2 33 C-13.84 33 -29.68 33 -46 33 C-45.67 32.34 -45.34 31.68 -45 31 C-30.48 31 -15.96 31 -1 31 C-0.67 20.77 -0.34 10.54 0 0 Z " fill="#F9F9F9" transform="translate(56,9)"/>
<path d="M0 0 C0.99 0 1.98 0 3 0 C5.1875 2.5 5.1875 2.5 7 5 C5.02 5.99 5.02 5.99 3 7 C3 7.99 3 8.98 3 10 C-6.9 10 -16.8 10 -27 10 C-27 9.67 -27 9.34 -27 9 C-24.03 9 -21.06 9 -18 9 C-17.67 7.68 -17.34 6.36 -17 5 C-16.34 5 -15.68 5 -15 5 C-15 5.99 -15 6.98 -15 8 C-13.68 8 -12.36 8 -11 8 C-11 6.35 -11 4.7 -11 3 C-12.32 2.67 -13.64 2.34 -15 2 C-10.71 2 -6.42 2 -2 2 C-2 2.66 -2 3.32 -2 4 C-3.98 4 -5.96 4 -8 4 C-8 5.32 -8 6.64 -8 8 C-6.35 8 -4.7 8 -3 8 C-2.67 7.01 -2.34 6.02 -2 5 C-0.35 5 1.3 5 3 5 C2.01 4.34 1.02 3.68 0 3 C0 2.01 0 1.02 0 0 Z " fill="#E0B31D" transform="translate(39,27)"/>
<path d="M0 0 C1.04590805 0.00222061 2.0918161 0.00444122 3.16941833 0.00672913 C4.35056717 0.00680466 5.531716 0.00688019 6.74865723 0.00695801 C8.03404892 0.01211929 9.31944061 0.01728058 10.64378357 0.02259827 C12.60601112 0.02472069 12.60601112 0.02472069 14.60787964 0.02688599 C18.09150591 0.03071042 21.57509071 0.04054005 25.05870056 0.05158997 C28.6111444 0.06180569 32.16359491 0.06638395 35.71604919 0.07142639 C42.69067564 0.0821624 49.66527449 0.09923792 56.63987732 0.12025452 C56.63987732 0.45025452 56.63987732 0.78025452 56.63987732 1.12025452 C55.92799759 1.13056198 55.21611786 1.14086945 54.48266602 1.15148926 C47.78704906 1.2493035 41.09152214 1.35179456 34.39605808 1.45959377 C30.95351992 1.51485331 27.51097332 1.56827798 24.06834412 1.61756897 C20.11423206 1.67426252 16.16026788 1.73882947 12.20628357 1.80384827 C10.96463943 1.82056076 9.7229953 1.83727325 8.44372559 1.85449219 C7.30261826 1.87443741 6.16151093 1.89438263 4.98582458 1.91493225 C3.97544632 1.93047653 2.96506805 1.94602081 1.92407227 1.96203613 C-0.32542157 1.86670182 -0.32542157 1.86670182 -1.36012268 3.12025452 C-1.44877476 6.00459272 -1.47533564 8.86487609 -1.45777893 11.74916077 C-1.45636398 12.61339157 -1.45494904 13.47762238 -1.45349121 14.36804199 C-1.44787507 17.13964744 -1.43531987 19.91117332 -1.42262268 22.68275452 C-1.41760976 24.55710231 -1.41304649 26.43145137 -1.40895081 28.30580139 C-1.3979004 32.91064995 -1.38062498 37.51543873 -1.36012268 42.12025452 C2.26987732 42.45025452 5.89987732 42.78025452 9.63987732 43.12025452 C9.63987732 43.78025452 9.63987732 44.44025452 9.63987732 45.12025452 C7.66078334 45.14712005 5.68158761 45.16658827 3.70237732 45.18275452 C2.60022888 45.19435608 1.49808044 45.20595764 0.36253357 45.21791077 C-2.36012268 45.12025452 -2.36012268 45.12025452 -3.36012268 44.12025452 C-3.45797609 42.77481125 -3.48810253 41.42432889 -3.48951721 40.07533264 C-3.49266937 39.21774353 -3.49582153 38.36015442 -3.49906921 37.47657776 C-3.49704498 36.54430359 -3.49502075 35.61202942 -3.49293518 34.65150452 C-3.49389191 33.70086121 -3.49484863 32.7502179 -3.49583435 31.77076721 C-3.49651625 29.75656569 -3.4946613 27.74236199 -3.49049377 25.72816467 C-3.48514566 22.63355097 -3.49043845 19.53908242 -3.49684143 16.44447327 C-3.49618065 14.49265003 -3.49489949 12.54082688 -3.49293518 10.58900452 C-3.49495941 9.65673035 -3.49698364 8.72445618 -3.49906921 7.76393127 C-3.49591705 6.90634216 -3.49276489 6.04875305 -3.48951721 5.16517639 C-3.48872162 4.40652283 -3.48792603 3.64786926 -3.48710632 2.8662262 C-3.28659232 0.10924298 -2.75569695 0.14041008 0 0 Z " fill="#0C0901" transform="translate(4.3601226806640625,2.8797454833984375)"/>
<path d="M0 0 C1.25159912 0.00523682 2.50319824 0.01047363 3.79272461 0.01586914 C4.78942421 0.01799156 4.78942421 0.01799156 5.80625916 0.02015686 C7.93590735 0.02577021 10.06545175 0.03832485 12.19506836 0.05102539 C13.63582205 0.05603868 15.07657739 0.06060188 16.51733398 0.06469727 C20.05577938 0.07574394 23.59416375 0.09301747 27.13256836 0.11352539 C27.13256836 0.44352539 27.13256836 0.77352539 27.13256836 1.11352539 C19.87256836 1.11352539 12.61256836 1.11352539 5.13256836 1.11352539 C4.80256836 2.10352539 4.47256836 3.09352539 4.13256836 4.11352539 C4.13256836 3.45352539 4.13256836 2.79352539 4.13256836 2.11352539 C2.15256836 2.11352539 0.17256836 2.11352539 -1.86743164 2.11352539 C-1.86743164 9.37352539 -1.86743164 16.63352539 -1.86743164 24.11352539 C7.70256836 24.11352539 17.27256836 24.11352539 27.13256836 24.11352539 C27.13256836 24.44352539 27.13256836 24.77352539 27.13256836 25.11352539 C22.87842213 25.13818161 18.62431338 25.15636438 14.37011719 25.16845703 C12.92186763 25.1734964 11.47362319 25.18032792 10.02539062 25.18896484 C7.94782248 25.20104786 5.87032139 25.2067575 3.79272461 25.21118164 C2.54112549 25.21641846 1.28952637 25.22165527 0 25.22705078 C-2.86743164 25.11352539 -2.86743164 25.11352539 -3.86743164 24.11352539 C-3.96675318 22.41793813 -3.99823171 20.71826792 -4.00024414 19.01977539 C-4.00217773 17.47483398 -4.00217773 17.47483398 -4.00415039 15.89868164 C-4.0002832 14.81458008 -3.99641602 13.73047852 -3.99243164 12.61352539 C-3.99629883 11.52942383 -4.00016602 10.44532227 -4.00415039 9.32836914 C-4.00286133 8.2984082 -4.00157227 7.26844727 -4.00024414 6.20727539 C-3.99911621 5.25530273 -3.99798828 4.30333008 -3.99682617 3.32250977 C-3.79966826 -0.04331064 -3.42297453 0.13552006 0 0 Z " fill="#2D2507" transform="translate(13.867431640625,12.886474609375)"/>
<path d="M0 0 C5.94 0 11.88 0 18 0 C18 1.98 18 3.96 18 6 C12.06 6 6.12 6 0 6 C0 4.02 0 2.04 0 0 Z " fill="#EEEEEE" transform="translate(17,22)"/>
<path d="M0 0 C0.99 0.495 0.99 0.495 2 1 C3.64362612 1.09602313 5.29107266 1.13074561 6.9375 1.1328125 C7.91460938 1.13410156 8.89171875 1.13539062 9.8984375 1.13671875 C11.43371094 1.13091797 11.43371094 1.13091797 13 1.125 C14.02351563 1.12886719 15.04703125 1.13273437 16.1015625 1.13671875 C17.07867187 1.13542969 18.05578125 1.13414063 19.0625 1.1328125 C20.41021484 1.13112061 20.41021484 1.13112061 21.78515625 1.12939453 C24.04131125 1.14363084 24.04131125 1.14363084 26 0 C25.67 1.65 25.34 3.3 25 5 C17.08 5 9.16 5 1 5 C0.67 3.35 0.34 1.7 0 0 Z " fill="#7B5F0C" transform="translate(19,56)"/>
<path d="M0 0 C3.3 0 6.6 0 10 0 C10.33 2.64 10.66 5.28 11 8 C7.04 8 3.08 8 -1 8 C-0.67 5.36 -0.34 2.72 0 0 Z " fill="#E6B316" transform="translate(27,48)"/>
<path d="M0 0 C0.66 0.33 1.32 0.66 2 1 C2 2.65 2 4.3 2 6 C3.65 6 5.3 6 7 6 C3.13198238 8.57867841 0.07530474 8.15753069 -4.38671875 7.9765625 C-5.20372757 7.95153656 -6.02073639 7.92651062 -6.86250305 7.90072632 C-9.47126037 7.81857276 -12.07925532 7.72196612 -14.6875 7.625 C-16.45634909 7.56675563 -18.22522945 7.50945245 -19.99414062 7.453125 C-24.32986534 7.31300101 -28.66496188 7.15991319 -33 7 C-33 6.67 -33 6.34 -33 6 C-23.43 5.67 -13.86 5.34 -4 5 C-3.67 4.01 -3.34 3.02 -3 2 C-2.01 1.34 -1.02 0.68 0 0 Z " fill="#D7D7D7" transform="translate(45,32)"/>
<path d="M0 0 C0.33 0 0.66 0 1 0 C1.84062776 4.36893737 2.11732956 8.4835198 2.09765625 12.9296875 C2.09282227 14.86328125 2.09282227 14.86328125 2.08789062 16.8359375 C2.07953733 18.18229236 2.07107241 19.52864652 2.0625 20.875 C2.0574783 22.24479004 2.05291657 23.61458185 2.04882812 24.984375 C2.03707254 28.3229619 2.02063964 31.66145815 2 35 C1.34 35 0.68 35 0 35 C-0.1979067 30.47955967 -0.3814754 25.95864537 -0.5625 21.4375 C-0.61857422 20.16068359 -0.67464844 18.88386719 -0.73242188 17.56835938 C-0.78076172 16.32763672 -0.82910156 15.08691406 -0.87890625 13.80859375 C-0.94960327 12.10401001 -0.94960327 12.10401001 -1.02172852 10.36499023 C-0.99886915 6.82487074 -0.57607256 3.48940923 0 0 Z " fill="#F0BC1B" transform="translate(59,8)"/>
<path d="M0 0 C0.66 0 1.32 0 2 0 C2 10.89 2 21.78 2 33 C1.01 33 0.02 33 -1 33 C-0.67 22.11 -0.34 11.22 0 0 Z " fill="#E4E4E4" transform="translate(56,9)"/>
<path d="M0 0 C4.29 0 8.58 0 13 0 C13 0.66 13 1.32 13 2 C11.02 2 9.04 2 7 2 C7 3.32 7 4.64 7 6 C8.65 6 10.3 6 12 6 C12.33 5.01 12.66 4.02 13 3 C13.99 3.33 14.98 3.66 16 4 C16 4.99 16 5.98 16 7 C10.06 7 4.12 7 -2 7 C-2 6.67 -2 6.34 -2 6 C-0.02 6 1.96 6 4 6 C4 4.35 4 2.7 4 1 C2.68 0.67 1.36 0.34 0 0 Z " fill="#EEBC1F" transform="translate(24,29)"/>
<path d="M0 0 C6.93 0 13.86 0 21 0 C20.67 0.99 20.34 1.98 20 3 C13.4 3 6.8 3 0 3 C0 2.01 0 1.02 0 0 Z " fill="#E3B116" transform="translate(19,14)"/>
<path d="M0 0 C0 1.65 0 3.3 0 5 C-1.32 5 -2.64 5 -4 5 C-4 4.01 -4 3.02 -4 2 C-4.391875 2.495 -4.78375 2.99 -5.1875 3.5 C-7.55091715 5.45593143 -9.01435003 5.24207973 -12 5 C-11.67 3.35 -11.34 1.7 -11 0 C-7.18243176 -1.37432457 -3.92744671 -0.67975039 0 0 Z " fill="#8A6F12" transform="translate(28,30)"/>
<path d="M0 0 C0.33 0.66 0.66 1.32 1 2 C1.66 2 2.32 2 3 2 C3.33 1.34 3.66 0.68 4 0 C4 0.66 4 1.32 4 2 C4.66 2 5.32 2 6 2 C6.33 1.34 6.66 0.68 7 0 C7.33 1.32 7.66 2.64 8 4 C1.07 4 -5.86 4 -13 4 C-13 3.34 -13 2.68 -13 2 C-8.71 2 -4.42 2 0 2 C0 1.34 0 0.68 0 0 Z " fill="#644E0B" transform="translate(32,15)"/>
<path d="M0 0 C2.5 0.125 2.5 0.125 3.5 1.125 C3.625 3.625 3.625 3.625 3.5 6.125 C2.5 7.125 2.5 7.125 -0.5625 7.1875 C-2.0165625 7.1565625 -2.0165625 7.1565625 -3.5 7.125 C-3.54254356 5.12545254 -3.54080783 3.12458364 -3.5 1.125 C-2.5 0.125 -2.5 0.125 0 0 Z " fill="#74611F" transform="translate(50.5,30.875)"/>
<path d="M0 0 C2.5 0.125 2.5 0.125 3.5 1.125 C3.625 3.625 3.625 3.625 3.5 6.125 C2.5 7.125 2.5 7.125 0 7.25 C-2.5 7.125 -2.5 7.125 -3.5 6.125 C-3.625 3.625 -3.625 3.625 -3.5 1.125 C-2.5 0.125 -2.5 0.125 0 0 Z " fill="#745C15" transform="translate(50.5,21.875)"/>
<path d="M0 0 C2.5 0.125 2.5 0.125 3.5 1.125 C3.625 3.625 3.625 3.625 3.5 6.125 C2.5 7.125 2.5 7.125 0 7.25 C-2.5 7.125 -2.5 7.125 -3.5 6.125 C-3.625 3.625 -3.625 3.625 -3.5 1.125 C-2.5 0.125 -2.5 0.125 0 0 Z " fill="#755E16" transform="translate(50.5,12.875)"/>
<path d="M0 0 C0.33 0 0.66 0 1 0 C1 1.65 1 3.3 1 5 C2.65 5 4.3 5 6 5 C6.33 4.34 6.66 3.68 7 3 C8.65 3 10.3 3 12 3 C12 3.66 12 4.32 12 5 C13.65 5 15.3 5 17 5 C17 3.35 17 1.7 17 0 C17.33 0 17.66 0 18 0 C18 1.98 18 3.96 18 6 C12.06 6 6.12 6 0 6 C0 4.02 0 2.04 0 0 Z " fill="#A1A1A1" transform="translate(17,22)"/>
<path d="M0 0 C0.99 0 1.98 0 3 0 C5.1875 2.5 5.1875 2.5 7 5 C5.02 5.99 5.02 5.99 3 7 C3 7.99 3 8.98 3 10 C2.34 10 1.68 10 1 10 C0.67 8.35 0.34 6.7 0 5 C0.99 5 1.98 5 3 5 C2.01 4.34 1.02 3.68 0 3 C0 2.01 0 1.02 0 0 Z " fill="#888272" transform="translate(39,27)"/>
<path d="M0 0 C0.33 0 0.66 0 1 0 C1.25 5.625 1.25 5.625 -1 9 C-3.625 9.1875 -3.625 9.1875 -6 9 C-6 7.68 -6 6.36 -6 5 C-4.02 5 -2.04 5 0 5 C0 4.34 0 3.68 0 3 C-0.66 2.67 -1.32 2.34 -2 2 C-1.34 2 -0.68 2 0 2 C0 1.34 0 0.68 0 0 Z " fill="#8A6B12" transform="translate(37,26)"/>
<path d="M0 0 C4.29 0 8.58 0 13 0 C13 0.66 13 1.32 13 2 C10.36 2.33 7.72 2.66 5 3 C4.67 3.99 4.34 4.98 4 6 C4 4.35 4 2.7 4 1 C2.68 0.67 1.36 0.34 0 0 Z " fill="#E4B61E" transform="translate(24,29)"/>
</svg>
